<svg xmlns="http://www.w3.org/2000/svg" viewBox="0 0 64 64" role="img" aria-label="ARM">
  <rect width="64" height="64" rx="14" fill="#0f172a"/>
  <g fill="#5eead4" fill-rule="evenodd">
    <path d="M7 39.75 13.15 24.25h2.4L21.7 39.75h-3.95l-.85-2.5h-5.1l-.85 2.5H7Zm5.55-5.6h3.6l-1.8-5.3-1.8 5.3Z"/>
    <path d="M24.2 39.75V24.25h7.15c3.6 0 5.95 2.15 5.95 5.15 0 2.05-1.05 3.65-2.8 4.45l3.4 5.9h-4.1l-2.85-5.15H27.7v5.15h-3.5Zm3.5-8.15h3.35c1.6 0 2.6-.8 2.6-2.1s-1-2.1-2.6-2.1H27.7v4.2Z"/>
    <path d="M41 39.75V24.25h3.3l4.85 7.6 4.85-7.6H57.3v15.5h-3.45v-9.4l-3.9 5.95h-1.6l-3.9-5.95v9.4H41Z"/>
  </g>
</svg>
